<mxfile host="app.diagrams.net" modified="2023-07-17T15:15:25.153Z" agent="Mozilla/5.0 (Windows NT 10.0; Win64; x64) AppleWebKit/537.36 (KHTML, like Gecko) Chrome/114.0.0.0 Safari/537.36 Edg/114.0.1823.82" version="21.5.0" etag="eNMVFP4davUwxq38D_MG" type="github">
  <diagram name="Seite-1" id="XUvlWzkPuOpmubYLoyUV">
    <mxGraphModel>
      <root>
        <mxCell id="0" />
        <mxCell id="1" parent="0" />
      </root>
    </mxGraphModel>
  </diagram>
</mxfile>
